<svg xmlns="http://www.w3.org/2000/svg" width="600" height="400" viewBox="0 0 600 400" role="img"><title>Temperatur i Lund</title><rect width="600" height="400" fill="#ffffff"/><text x="300" y="24" text-anchor="middle" font-family="sans-serif" font-size="16">Temperatur i Lund</text><g font-family="sans-serif" font-size="12" text-anchor="end"><line x1="50" y1="360" x2="580" y2="360" stroke="#e0e0e0"/><text x="42" y="360" dominant-baseline="middle">-1</text><line x1="50" y1="306.67" x2="580" y2="306.67" stroke="#e0e0e0"/><text x="42" y="306.67" dominant-baseline="middle">0</text><line x1="50" y1="253.33" x2="580" y2="253.33" stroke="#e0e0e0"/><text x="42" y="253.33" dominant-baseline="middle">1</text><line x1="50" y1="200" x2="580" y2="200" stroke="#e0e0e0"/><text x="42" y="200" dominant-baseline="middle">2</text><line x1="50" y1="146.67" x2="580" y2="146.67" stroke="#e0e0e0"/><text x="42" y="146.67" dominant-baseline="middle">3</text><line x1="50" y1="93.33" x2="580" y2="93.33" stroke="#e0e0e0"/><text x="42" y="93.33" dominant-baseline="middle">4</text><line x1="50" y1="40" x2="580" y2="40" stroke="#e0e0e0"/><text x="42" y="40" dominant-baseline="middle">5</text></g><g font-family="sans-serif" font-size="12" text-anchor="middle"><text x="103" y="380">Mån</text><text x="209" y="380">Tis</text><text x="315" y="380">Ons</text><text x="421" y="380">Tor</text><text x="527" y="380">Fre</text></g><g fill="#1f77b4"><rect x="60.6" y="146.67" width="84.8" height="160"/><rect x="166.6" y="226.67" width="84.8" height="80"/><rect x="272.6" y="306.67" width="84.8" height="53.33"/><rect x="378.6" y="200" width="84.8" height="106.67"/><rect x="484.6" y="66.67" width="84.8" height="240"/></g></svg>